<?xml version="1.0" standalone="no"?>
<!DOCTYPE svg PUBLIC "-//W3C//DTD SVG 20010904//EN"
 "http://www.w3.org/TR/2001/REC-SVG-20010904/DTD/svg10.dtd">
<svg version="1.0" xmlns="http://www.w3.org/2000/svg"
 width="4000.000000pt" height="1084.000000pt" viewBox="0 0 4000.000000 1084.000000"
 preserveAspectRatio="xMidYMid meet">

<g transform="translate(0.000000,1084.000000) scale(0.100000,-0.100000)"
fill="#000000" stroke="none">
<path d="M3146 10462 c-3 -5 -455 -1484 -1006 -3288 -550 -1803 -1009 -3305
-1020 -3336 l-19 -58 437 0 437 0 230 808 c126 444 235 828 243 855 l14 47
1231 -2 1232 -3 251 -850 251 -850 461 -3 c368 -2 461 0 457 10 -2 7 -448
1502 -990 3323 -542 1821 -990 3320 -995 3333 l-10 22 -599 0 c-330 0 -602 -4
-605 -8z m787 -1472 c342 -1210 797 -2833 797 -2842 0 -4 -466 -8 -1035 -8
-569 0 -1035 4 -1035 9 0 4 156 541 346 1192 299 1025 551 1900 665 2312 18
64 36 114 39 110 4 -5 104 -352 223 -773z"/>
<path d="M6513 10450 c3 -12 333 -1517 734 -3345 l728 -3325 481 0 c376 0 483
3 487 13 2 6 285 1184 627 2617 343 1433 626 2608 629 2612 3 4 289 -1169 635
-2605 346 -1437 631 -2618 634 -2625 3 -9 110 -12 488 -12 l484 0 5 22 c5 21
1388 6573 1402 6641 l6 27 -421 0 -420 0 -26 -142 c-480 -2557 -995 -5291
-996 -5283 -1 6 -295 1227 -654 2715 l-652 2705 -449 0 -450 0 -635 -2712
c-418 -1784 -637 -2704 -642 -2690 -4 12 -239 1230 -523 2706 -284 1477 -519
2689 -521 2693 -3 4 -219 8 -481 8 -473 0 -475 0 -470 -20z"/>
<path d="M16137 10463 c-8 -12 -2037 -6660 -2037 -6672 0 -8 132 -11 433 -11
l432 0 233 818 c128 449 237 834 243 855 l10 37 1232 -2 1232 -3 251 -850 251
-850 461 -3 c368 -2 461 0 457 10 -2 7 -448 1502 -990 3323 -542 1821 -990
3320 -995 3333 l-10 22 -599 0 c-330 0 -602 -3 -604 -7z m806 -1543 c377
-1335 777 -2761 777 -2771 0 -5 -402 -9 -1036 -9 l-1036 0 7 28 c3 15 155 536
336 1157 287 982 609 2102 680 2363 12 45 26 79 29 75 4 -4 114 -384 243 -843z"/>
<path d="M20290 7125 l0 -3345 450 0 450 0 0 1380 0 1380 753 0 c935 0 1117
-11 1340 -77 80 -24 95 -33 158 -91 172 -159 281 -394 369 -791 62 -278 93
-474 170 -1066 39 -297 77 -582 85 -632 8 -51 15 -95 15 -98 0 -3 219 -5 486
-5 l486 0 -6 27 c-3 16 -85 478 -181 1028 -96 550 -186 1042 -200 1093 -126
464 -417 762 -867 889 l-98 27 128 32 c203 52 365 127 513 239 297 223 463
541 533 1018 48 328 38 812 -23 1134 -59 304 -136 481 -296 672 -148 176 -278
264 -515 346 -468 163 -772 184 -2732 185 l-1018 0 0 -3345z m2775 2645 c199
-13 408 -36 500 -57 96 -21 197 -71 277 -137 80 -66 110 -119 140 -244 20 -82
22 -119 25 -672 6 -744 -4 -853 -93 -1039 -73 -150 -196 -237 -419 -294 -256
-66 -526 -79 -1560 -75 l-740 3 -3 1263 -2 1262 857 0 c472 0 930 -5 1018 -10z"/>
<path d="M26210 7125 l0 -3345 1887 2 1887 3 43 320 c23 176 42 330 42 343 l1
22 -1475 0 -1475 0 0 1215 0 1215 1245 0 1245 0 -2 363 -3 362 -1242 3 -1243
2 0 1075 0 1075 1455 0 c1379 0 1455 1 1454 18 0 9 -19 163 -43 342 l-42 325
-1867 3 -1867 2 0 -3345z"/>
<path d="M31273 10403 c125 -230 1232 -2132 1237 -2126 9 9 1230 2124 1230
2130 0 1 -556 3 -1236 3 -679 0 -1233 -3 -1231 -7z"/>
<path d="M33237 9341 c-340 -587 -617 -1071 -617 -1075 0 -3 556 -6 1235 -6
679 0 1235 2 1235 3 0 2 -266 465 -591 1028 -325 563 -604 1045 -619 1072
l-27 47 -616 -1069z"/>
<path d="M33970 10404 c0 -11 1224 -2133 1231 -2134 3 0 277 471 609 1048 332
576 610 1057 618 1070 l14 22 -1236 0 c-680 0 -1236 -3 -1236 -6z"/>
<path d="M36700 10353 c99 -175 1193 -2069 1200 -2076 5 -6 1005 1709 1218
2091 l24 42 -1237 0 -1237 0 32 -57z"/>
<path d="M35935 9344 c-336 -581 -611 -1063 -613 -1070 -3 -12 197 -14 1233
-14 l1237 0 -14 23 c-8 12 -286 493 -618 1070 -332 576 -606 1047 -610 1047
-3 0 -280 -475 -615 -1056z"/>
<path d="M35317 8157 c4 -8 282 -489 618 -1070 335 -582 612 -1057 615 -1057
3 0 278 471 610 1048 332 576 610 1057 618 1070 l14 22 -1241 0 c-1035 0
-1241 -2 -1234 -13z"/>
<path d="M34581 7094 c-337 -586 -611 -1067 -609 -1069 3 -3 559 -4 1236 -3
l1230 3 -614 1065 c-338 586 -618 1066 -622 1067 -4 1 -283 -477 -621 -1063z"/>
<path d="M33974 5913 c5 -14 1094 -1906 1209 -2101 l19 -32 605 1047 c332 577
611 1060 619 1076 l15 27 -1237 0 c-1173 0 -1236 -1 -1230 -17z"/>
<path d="M33797 5828 c-265 -453 -1177 -2041 -1174 -2044 2 -2 558 -3 1235 -2
l1231 3 -614 1063 c-337 585 -615 1066 -618 1069 -3 2 -30 -37 -60 -89z"/>
</g>
</svg>
